<svg xmlns="http://www.w3.org/2000/svg" viewBox="0 0 432 288"><defs><linearGradient id="a"><stop offset="5%" stop-color="hsl(18, 43%, 10%)"/><stop offset="25%" stop-color="hsl(18, 43%, 20%)"/><stop offset="50%" stop-color="hsl(18, 43%, 33%)"/><stop offset="75%" stop-color="hsl(18, 43%, 20%)"/><stop offset="95%" stop-color="hsl(18, 43%, 10%)"/></linearGradient></defs><path d="M248.77 67.777q31.833-6.297 49.89 20.665t49.89 20.665l-9.185 22.173q-31.833 6.297-49.89-20.665t-49.89-20.665Z"/><path fill="red" d="M239.586 89.95q31.833-6.297 49.89 20.665t49.889 20.665l-9.185 22.173q-31.833 6.298-49.89-20.665t-49.889-20.665Z"/><path fill="#FC0" d="M230.401 112.123q31.833-6.297 49.89 20.665t49.89 20.665l-9.185 22.173q-31.833 6.298-49.89-20.665t-49.89-20.665Z"/><path fill="url(#a)" d="M-6 0q3-1 6 0v216Z" transform="rotate(22.5 -45.984 659.214)"/><path fill="#008C45" d="M83.45 109.107q21.223 4.198 36.322-6.386l27.553 66.52q-15.864 8.736-36.32 6.385Z"/><path fill="#F4F5F0" d="M119.772 102.721q7.55-5.292 13.568-14.279 6.02-8.987 13.569-14.28l27.553 66.52q-7.55 5.292-13.568 14.28-6.02 8.987-13.569 14.279Z"/><path fill="#CD212A" d="M146.909 74.163q15.099-10.584 36.32-6.386l27.554 66.52q-21.222-4.199-36.321 6.385Z"/><path fill="url(#a)" d="M108 0q3-1 6 0l-6 216Z" transform="rotate(-22.5 315.984 -155.214)"/></svg>